<svg xmlns="http://www.w3.org/2000/svg" viewBox="0 0 320 220">
<defs>
 <linearGradient id="bg" x1="0" y1="0" x2="0" y2="1"><stop stop-color="#eef3f6"/><stop offset="1" stop-color="#dde6ec"/></linearGradient>
 <filter id="s" x="-30%" y="-30%" width="160%" height="160%"><feDropShadow dx="0" dy="5" stdDeviation="5" flood-opacity=".22"/></filter>
</defs>
<rect width="320" height="220" rx="18" fill="url(#bg)"/>
<ellipse cx="160" cy="194" rx="78" ry="13" fill="#1f2b3a" opacity=".20"/>
<g filter="url(#s)">
 <rect x="115" y="147" width="35" height="37" rx="10" fill="#402634"/><rect x="170" y="147" width="35" height="37" rx="10" fill="#402634"/>
 <rect x="105" y="170" width="47" height="16" rx="6" fill="#1f2b3a"/><rect x="168" y="170" width="47" height="16" rx="6" fill="#1f2b3a"/>
 <rect x="111" y="92" width="98" height="66" rx="22" fill="#f052bf"/>
 <rect x="126" y="105" width="68" height="16" rx="7" fill="#ffb83f" opacity=".95"/>
 <rect x="131" y="58" width="58" height="52" rx="23" fill="#f7b893"/>
 <ellipse cx="160" cy="59" rx="42" ry="22" fill="#f052bf"/>
 <rect x="121" y="60" width="78" height="10" rx="5" fill="#f052bf"/>
 <rect x="140" y="78" width="40" height="8" rx="4" fill="#38ffe6"/>
 <rect x="87" y="103" width="32" height="48" rx="13" fill="#f052bf"/><rect x="201" y="103" width="32" height="48" rx="13" fill="#f052bf"/>
 <circle cx="102" cy="148" r="10" fill="#f7b893"/><circle cx="218" cy="148" r="10" fill="#f7b893"/>
 <rect x="202" y="83" width="26" height="82" rx="8" fill="#1f2b3a"/><rect x="207" y="90" width="17" height="66" rx="5" fill="#ffb83f"/><rect x="212" y="106" width="6" height="34" rx="3" fill="#ffc233"/>
 </g>
</svg>